<svg xmlns="http://www.w3.org/2000/svg" viewBox="0 0 360 80" fill="none">
  <!-- Momo dumpling icon - outline style matching the brand logo -->
  <g transform="translate(8, 8)" stroke="#C2841A" stroke-width="2.8" stroke-linecap="round" stroke-linejoin="round" fill="none">
    <!-- Main dumpling body - rounded shape -->
    <path d="M6 42C4 36 4 28 8 22C12 16 18 12 26 10C34 8 42 10 48 14C54 18 58 24 58 32C58 38 56 44 52 48C46 54 38 58 30 58C22 58 14 54 10 48C8 46 6.5 44 6 42Z"/>
    <!-- Top pleats/folds of the momo -->
    <path d="M20 12C24 6 30 4 36 4C42 4 48 6 52 10"/>
    <path d="M26 10C28 6 32 4 36 4"/>
    <path d="M36 4C40 4 44 6 46 10"/>
    <!-- Inner fold lines showing the pinched top -->
    <path d="M28 14C30 10 34 8 38 10"/>
    <path d="M22 16C26 10 32 8 36 8C40 8 44 10 46 14"/>
    <!-- Bottom curve detail -->
    <path d="M14 46C20 52 28 54 36 52C44 50 50 46 52 40"/>
  </g>
  <!-- MomoCraft text -->
  <text x="82" y="52" font-family="'Cormorant Garamond', Georgia, serif" font-size="36" font-weight="600" fill="#C2841A">MomoCraft</text>
</svg>
