<svg xmlns="http://www.w3.org/2000/svg" viewBox="0 0 380 80" fill="none">
  <!-- Momo dumpling icon - line art style -->
  <g stroke="#C2841A" stroke-width="2.5" fill="none" stroke-linecap="round" stroke-linejoin="round">
    <!-- Main body of the momo dumpling -->
    <path d="M12 52C8 46 6 40 7 34C8 26 14 18 22 14C28 11 34 12 38 14"/>
    <path d="M38 14C42 12 48 11 54 14C60 18 64 26 65 34C66 40 64 46 60 52"/>
    <path d="M60 52C54 58 44 62 36 62C28 62 18 58 12 52"/>
    <!-- Top pleats/pinch of the momo -->
    <path d="M22 14C26 8 32 5 38 5C44 5 50 8 54 14"/>
    <path d="M28 12C32 7 36 6 38 6C40 6 44 7 48 12"/>
    <path d="M32 10C34 7 36 6.5 38 6.5C40 6.5 42 7 44 10"/>
    <!-- Pleats converging at top -->
    <path d="M34 8C36 5 38 4.5 38 4.5"/>
    <path d="M42 8C40 5 38 4.5 38 4.5"/>
  </g>
  <!-- MomoCraft text in serif font -->
  <text x="82" y="50" font-family="'Cormorant Garamond', 'Times New Roman', Georgia, serif" font-size="35" font-weight="600" letter-spacing="-0.5" fill="#C2841A">MomoCraft</text>
</svg>
